<mxfile host="65bd71144e">
    <diagram id="_UxFQ_0E_hbpEMtKLm1K" name="lap1.1">
        <mxGraphModel dx="1054" dy="609" grid="1" gridSize="10" guides="1" tooltips="1" connect="1" arrows="1" fold="1" page="1" pageScale="1" pageWidth="850" pageHeight="1100" background="#FFFFFF" math="0" shadow="0">
            <root>
                <mxCell id="0"/>
                <mxCell id="1" parent="0"/>
                <mxCell id="69oGPSVdqGjq_GLPQMWP-10" value="&lt;font color=&quot;#ff0000&quot;&gt;Khóa Học&lt;/font&gt;" style="rounded=0;whiteSpace=wrap;html=1;labelBackgroundColor=#FFFF33;strokeColor=#36393d;fillColor=#ffff88;" parent="1" vertex="1">
                    <mxGeometry x="170" y="200" width="120" height="60" as="geometry"/>
                </mxCell>
                <mxCell id="69oGPSVdqGjq_GLPQMWP-12" value="&lt;font color=&quot;#ff0000&quot;&gt;Tín chỉ&lt;/font&gt;" style="rounded=0;whiteSpace=wrap;html=1;labelBackgroundColor=#FFFF33;strokeColor=#36393d;fillColor=#ffff88;" parent="1" vertex="1">
                    <mxGeometry x="170" y="320" width="120" height="50" as="geometry"/>
                </mxCell>
                <mxCell id="69oGPSVdqGjq_GLPQMWP-20" value="&lt;font color=&quot;#ff0000&quot;&gt;Danh sách Khóa học&lt;/font&gt;" style="rounded=0;whiteSpace=wrap;html=1;labelBackgroundColor=#FFFF33;strokeColor=#36393d;fillColor=#ffff88;" parent="1" vertex="1">
                    <mxGeometry x="480" y="200" width="120" height="60" as="geometry"/>
                </mxCell>
                <mxCell id="69oGPSVdqGjq_GLPQMWP-24" value="" style="endArrow=open;html=1;endSize=12;startArrow=diamondThin;startSize=14;startFill=1;edgeStyle=orthogonalEdgeStyle;align=left;verticalAlign=bottom;fontColor=#FF0000;strokeColor=#3333FF;exitX=0;exitY=0.5;exitDx=0;exitDy=0;" parent="1" source="69oGPSVdqGjq_GLPQMWP-20" edge="1">
                    <mxGeometry x="-1" y="3" relative="1" as="geometry">
                        <mxPoint x="420" y="310" as="sourcePoint"/>
                        <mxPoint x="290" y="230" as="targetPoint"/>
                        <Array as="points"/>
                    </mxGeometry>
                </mxCell>
                <mxCell id="69oGPSVdqGjq_GLPQMWP-53" value="1" style="text;html=1;align=center;verticalAlign=middle;resizable=0;points=[];autosize=1;strokeColor=none;fillColor=none;fontColor=#FF0000;" parent="1" vertex="1">
                    <mxGeometry x="460" y="200" width="20" height="20" as="geometry"/>
                </mxCell>
                <mxCell id="69oGPSVdqGjq_GLPQMWP-54" value="1..*" style="text;html=1;align=center;verticalAlign=middle;resizable=0;points=[];autosize=1;strokeColor=none;fillColor=none;fontColor=#FF0000;" parent="1" vertex="1">
                    <mxGeometry x="290" y="200" width="30" height="20" as="geometry"/>
                </mxCell>
                <mxCell id="US_-0LnyogsW8wak2_KM-1" value="&lt;font color=&quot;#ff0000&quot;&gt;Database&lt;/font&gt;" style="rounded=0;whiteSpace=wrap;html=1;labelBackgroundColor=#FFFF33;strokeColor=#36393d;fillColor=#ffff88;" parent="1" vertex="1">
                    <mxGeometry x="480" y="320" width="120" height="60" as="geometry"/>
                </mxCell>
                <mxCell id="-UI2S-TL_zNAiqOf4RH--2" value="" style="endArrow=none;html=1;fontColor=#FF3333;exitX=0.5;exitY=0;exitDx=0;exitDy=0;entryX=0.5;entryY=1;entryDx=0;entryDy=0;fillColor=#0050ef;strokeColor=#001DBC;" parent="1" source="US_-0LnyogsW8wak2_KM-1" target="69oGPSVdqGjq_GLPQMWP-20" edge="1">
                    <mxGeometry width="50" height="50" relative="1" as="geometry">
                        <mxPoint x="230" y="250" as="sourcePoint"/>
                        <mxPoint x="280" y="200" as="targetPoint"/>
                    </mxGeometry>
                </mxCell>
                <mxCell id="-UI2S-TL_zNAiqOf4RH--3" value="1" style="text;html=1;align=center;verticalAlign=middle;resizable=0;points=[];autosize=1;strokeColor=none;fillColor=none;fontColor=#FF0000;" parent="1" vertex="1">
                    <mxGeometry x="540" y="260" width="20" height="20" as="geometry"/>
                </mxCell>
                <mxCell id="-UI2S-TL_zNAiqOf4RH--4" value="1" style="text;html=1;align=center;verticalAlign=middle;resizable=0;points=[];autosize=1;strokeColor=none;fillColor=none;fontColor=#FF0000;" parent="1" vertex="1">
                    <mxGeometry x="540" y="300" width="20" height="20" as="geometry"/>
                </mxCell>
                <mxCell id="-UI2S-TL_zNAiqOf4RH--5" value="1" style="text;html=1;align=center;verticalAlign=middle;resizable=0;points=[];autosize=1;strokeColor=none;fillColor=none;fontColor=#FF0000;" parent="1" vertex="1">
                    <mxGeometry x="230" y="260" width="20" height="20" as="geometry"/>
                </mxCell>
                <mxCell id="-UI2S-TL_zNAiqOf4RH--6" value="1..*" style="text;html=1;align=center;verticalAlign=middle;resizable=0;points=[];autosize=1;strokeColor=none;fillColor=none;fontColor=#FF0000;" parent="1" vertex="1">
                    <mxGeometry x="225" y="300" width="30" height="20" as="geometry"/>
                </mxCell>
                <mxCell id="2" value="" style="endArrow=none;html=1;fillColor=#0050ef;strokeColor=#001DBC;exitX=0.5;exitY=0;exitDx=0;exitDy=0;entryX=0.5;entryY=1;entryDx=0;entryDy=0;" parent="1" source="69oGPSVdqGjq_GLPQMWP-12" target="69oGPSVdqGjq_GLPQMWP-10" edge="1">
                    <mxGeometry width="50" height="50" relative="1" as="geometry">
                        <mxPoint x="400" y="340" as="sourcePoint"/>
                        <mxPoint x="450" y="290" as="targetPoint"/>
                    </mxGeometry>
                </mxCell>
            </root>
        </mxGraphModel>
    </diagram>
    <diagram name="lap1.2" id="RYfqkhEIGYZpy4Kvbkqd">
        <mxGraphModel dx="1054" dy="609" grid="1" gridSize="10" guides="1" tooltips="1" connect="1" arrows="1" fold="1" page="1" pageScale="1" pageWidth="850" pageHeight="1100" background="#FFFFFF" math="0" shadow="0">
            <root>
                <mxCell id="ChFzxE-hWu39rJrbuBB7-0"/>
                <mxCell id="ChFzxE-hWu39rJrbuBB7-1" parent="ChFzxE-hWu39rJrbuBB7-0"/>
                <mxCell id="QB7yxq1LZEZvKJPrPn3y-0" value="Công ty BĐS" style="rounded=0;whiteSpace=wrap;html=1;fillColor=#ffff88;strokeColor=#FF3333;strokeWidth=3;fontColor=#FF0000;fontStyle=1" vertex="1" parent="ChFzxE-hWu39rJrbuBB7-1">
                    <mxGeometry x="220" y="180" width="120" height="60" as="geometry"/>
                </mxCell>
                <mxCell id="QB7yxq1LZEZvKJPrPn3y-1" value="Khách Hàng" style="rounded=0;whiteSpace=wrap;html=1;fillColor=#ffff88;strokeColor=#FF3333;strokeWidth=3;fontColor=#FF0000;fontStyle=1" vertex="1" parent="ChFzxE-hWu39rJrbuBB7-1">
                    <mxGeometry x="600" y="180" width="120" height="60" as="geometry"/>
                </mxCell>
                <mxCell id="QB7yxq1LZEZvKJPrPn3y-2" value="Căn nhà" style="rounded=0;whiteSpace=wrap;html=1;fillColor=#ffff88;strokeColor=#FF3333;strokeWidth=3;fontColor=#FF0000;fontStyle=1" vertex="1" parent="ChFzxE-hWu39rJrbuBB7-1">
                    <mxGeometry x="280" y="400" width="120" height="60" as="geometry"/>
                </mxCell>
                <mxCell id="QB7yxq1LZEZvKJPrPn3y-3" value="" style="endArrow=none;html=1;exitX=1;exitY=0.5;exitDx=0;exitDy=0;entryX=0;entryY=0.5;entryDx=0;entryDy=0;fillColor=#ffff88;strokeColor=#FF3333;strokeWidth=3;fontColor=#FF0000;fontStyle=1" edge="1" parent="ChFzxE-hWu39rJrbuBB7-1" source="QB7yxq1LZEZvKJPrPn3y-0" target="QB7yxq1LZEZvKJPrPn3y-1">
                    <mxGeometry width="50" height="50" relative="1" as="geometry">
                        <mxPoint x="420" y="320" as="sourcePoint"/>
                        <mxPoint x="470" y="270" as="targetPoint"/>
                    </mxGeometry>
                </mxCell>
                <mxCell id="QB7yxq1LZEZvKJPrPn3y-4" value="" style="endArrow=none;html=1;exitX=0.5;exitY=1;exitDx=0;exitDy=0;entryX=0;entryY=0;entryDx=0;entryDy=0;fillColor=#ffff88;strokeColor=#FF3333;strokeWidth=3;fontColor=#FF0000;fontStyle=1" edge="1" parent="ChFzxE-hWu39rJrbuBB7-1" source="QB7yxq1LZEZvKJPrPn3y-0" target="QB7yxq1LZEZvKJPrPn3y-2">
                    <mxGeometry width="50" height="50" relative="1" as="geometry">
                        <mxPoint x="240" y="230" as="sourcePoint"/>
                        <mxPoint x="600" y="230" as="targetPoint"/>
                        <Array as="points"/>
                    </mxGeometry>
                </mxCell>
                <mxCell id="QB7yxq1LZEZvKJPrPn3y-5" value="" style="endArrow=none;html=1;exitX=0.562;exitY=0.986;exitDx=0;exitDy=0;entryX=1;entryY=0;entryDx=0;entryDy=0;exitPerimeter=0;fillColor=#ffff88;strokeColor=#FF3333;strokeWidth=3;fontColor=#FF0000;fontStyle=1" edge="1" parent="ChFzxE-hWu39rJrbuBB7-1" source="QB7yxq1LZEZvKJPrPn3y-1" target="QB7yxq1LZEZvKJPrPn3y-2">
                    <mxGeometry width="50" height="50" relative="1" as="geometry">
                        <mxPoint x="180" y="260" as="sourcePoint"/>
                        <mxPoint x="360" y="400" as="targetPoint"/>
                    </mxGeometry>
                </mxCell>
                <mxCell id="QB7yxq1LZEZvKJPrPn3y-13" value="&lt;font color=&quot;#ff3333&quot;&gt;Sơ&amp;nbsp;đồ Domain của công ty BĐS&lt;/font&gt;" style="text;html=1;strokeColor=#FF3333;fillColor=#ffff88;align=center;verticalAlign=middle;whiteSpace=wrap;rounded=0;strokeWidth=3;fontStyle=1" vertex="1" parent="ChFzxE-hWu39rJrbuBB7-1">
                    <mxGeometry x="260" y="110" width="310" height="30" as="geometry"/>
                </mxCell>
                <mxCell id="QB7yxq1LZEZvKJPrPn3y-16" value="1" style="text;html=1;align=center;verticalAlign=middle;resizable=0;points=[];autosize=1;strokeColor=none;fillColor=none;fontColor=#FF0000;" vertex="1" parent="ChFzxE-hWu39rJrbuBB7-1">
                    <mxGeometry x="280" y="240" width="20" height="20" as="geometry"/>
                </mxCell>
                <mxCell id="QB7yxq1LZEZvKJPrPn3y-17" value="1..*" style="text;html=1;align=center;verticalAlign=middle;resizable=0;points=[];autosize=1;strokeColor=none;fillColor=none;fontColor=#FF0000;" vertex="1" parent="ChFzxE-hWu39rJrbuBB7-1">
                    <mxGeometry x="280" y="380" width="30" height="20" as="geometry"/>
                </mxCell>
                <mxCell id="QB7yxq1LZEZvKJPrPn3y-19" value="is - a" style="text;html=1;align=center;verticalAlign=middle;resizable=0;points=[];autosize=1;strokeColor=none;fillColor=none;fontColor=#FF0000;" vertex="1" parent="ChFzxE-hWu39rJrbuBB7-1">
                    <mxGeometry x="280" y="300" width="40" height="20" as="geometry"/>
                </mxCell>
                <mxCell id="QB7yxq1LZEZvKJPrPn3y-20" value="1" style="text;html=1;align=center;verticalAlign=middle;resizable=0;points=[];autosize=1;strokeColor=none;fillColor=none;fontColor=#FF0000;" vertex="1" parent="ChFzxE-hWu39rJrbuBB7-1">
                    <mxGeometry x="350" y="180" width="20" height="20" as="geometry"/>
                </mxCell>
                <mxCell id="QB7yxq1LZEZvKJPrPn3y-21" value="1..*" style="text;html=1;align=center;verticalAlign=middle;resizable=0;points=[];autosize=1;strokeColor=none;fillColor=none;fontColor=#FF0000;" vertex="1" parent="ChFzxE-hWu39rJrbuBB7-1">
                    <mxGeometry x="560" y="180" width="30" height="20" as="geometry"/>
                </mxCell>
                <mxCell id="QB7yxq1LZEZvKJPrPn3y-22" value="1" style="text;html=1;align=center;verticalAlign=middle;resizable=0;points=[];autosize=1;strokeColor=none;fillColor=none;fontColor=#FF0000;" vertex="1" parent="ChFzxE-hWu39rJrbuBB7-1">
                    <mxGeometry x="660" y="240" width="20" height="20" as="geometry"/>
                </mxCell>
                <mxCell id="QB7yxq1LZEZvKJPrPn3y-23" value="1..*" style="text;html=1;align=center;verticalAlign=middle;resizable=0;points=[];autosize=1;strokeColor=none;fillColor=none;fontColor=#FF0000;" vertex="1" parent="ChFzxE-hWu39rJrbuBB7-1">
                    <mxGeometry x="400" y="400" width="30" height="20" as="geometry"/>
                </mxCell>
            </root>
        </mxGraphModel>
    </diagram>
    <diagram name="lap1.3" id="PTI4m0lSxJVTpoNXbfq7">
        <mxGraphModel dx="1904" dy="609" grid="1" gridSize="10" guides="1" tooltips="1" connect="1" arrows="1" fold="1" page="1" pageScale="1" pageWidth="850" pageHeight="1100" background="#FFFFFF" math="0" shadow="0">
            <root>
                <mxCell id="U2COYKZ9y0e4vOzo1eaQ-0"/>
                <mxCell id="U2COYKZ9y0e4vOzo1eaQ-1" parent="U2COYKZ9y0e4vOzo1eaQ-0"/>
                <mxCell id="1-s_EBftzV6ss8E919WM-0" style="edgeStyle=none;html=1;entryX=0.5;entryY=0;entryDx=0;entryDy=0;fontColor=#FF0000;strokeColor=#3333FF;" parent="U2COYKZ9y0e4vOzo1eaQ-1" source="2zSRY0cgR5PDKBvKgZgw-1" target="kw6-8Ziui9tUm82AIqNF-0" edge="1">
                    <mxGeometry relative="1" as="geometry"/>
                </mxCell>
                <mxCell id="2zSRY0cgR5PDKBvKgZgw-1" value="&lt;font color=&quot;#ff0000&quot;&gt;Đăng kí thành viên&lt;/font&gt;" style="rounded=0;whiteSpace=wrap;html=1;labelBackgroundColor=#FFFF33;strokeColor=#36393d;fillColor=#ffff88;" parent="U2COYKZ9y0e4vOzo1eaQ-1" vertex="1">
                    <mxGeometry x="-495" y="130" width="120" height="60" as="geometry"/>
                </mxCell>
                <mxCell id="kw6-8Ziui9tUm82AIqNF-0" value="&lt;font color=&quot;#ff0000&quot;&gt;Video&lt;/font&gt;" style="rounded=0;whiteSpace=wrap;html=1;labelBackgroundColor=#FFFF33;strokeColor=#36393d;fillColor=#ffff88;" parent="U2COYKZ9y0e4vOzo1eaQ-1" vertex="1">
                    <mxGeometry x="-495" y="280" width="120" height="60" as="geometry"/>
                </mxCell>
                <mxCell id="kw6-8Ziui9tUm82AIqNF-6" value="&lt;font color=&quot;#ff0000&quot;&gt;Danh Sách Video&lt;/font&gt;" style="rounded=0;whiteSpace=wrap;html=1;labelBackgroundColor=#FFFF33;strokeColor=#36393d;fillColor=#ffff88;" parent="U2COYKZ9y0e4vOzo1eaQ-1" vertex="1">
                    <mxGeometry x="-285" y="280" width="120" height="60" as="geometry"/>
                </mxCell>
                <mxCell id="-ThMTFt2ipFqbg5YEFVm-0" value="" style="endArrow=open;html=1;endSize=12;startArrow=diamondThin;startSize=14;startFill=1;edgeStyle=orthogonalEdgeStyle;align=left;verticalAlign=bottom;fontColor=#FF0000;strokeColor=#3333FF;entryX=0;entryY=0.5;entryDx=0;entryDy=0;exitX=1;exitY=0.5;exitDx=0;exitDy=0;" parent="U2COYKZ9y0e4vOzo1eaQ-1" source="kw6-8Ziui9tUm82AIqNF-0" target="kw6-8Ziui9tUm82AIqNF-6" edge="1">
                    <mxGeometry x="-1" y="3" relative="1" as="geometry">
                        <mxPoint x="-355" y="520" as="sourcePoint"/>
                        <mxPoint x="-165" y="520" as="targetPoint"/>
                        <Array as="points">
                            <mxPoint x="-325" y="310"/>
                            <mxPoint x="-325" y="310"/>
                        </Array>
                    </mxGeometry>
                </mxCell>
                <mxCell id="-ThMTFt2ipFqbg5YEFVm-1" value="1" style="text;html=1;align=center;verticalAlign=middle;resizable=0;points=[];autosize=1;strokeColor=none;fillColor=none;fontColor=#FF0000;" parent="U2COYKZ9y0e4vOzo1eaQ-1" vertex="1">
                    <mxGeometry x="-375" y="290" width="20" height="20" as="geometry"/>
                </mxCell>
                <mxCell id="IP90Giem8noXHMxNum-Y-0" value="1..*" style="text;html=1;align=center;verticalAlign=middle;resizable=0;points=[];autosize=1;strokeColor=none;fillColor=none;fontColor=#FF0000;" parent="U2COYKZ9y0e4vOzo1eaQ-1" vertex="1">
                    <mxGeometry x="-310" y="290" width="30" height="20" as="geometry"/>
                </mxCell>
                <mxCell id="ulAnVibXYlt-oufWvovE-0" value="1" style="text;html=1;align=center;verticalAlign=middle;resizable=0;points=[];autosize=1;strokeColor=none;fillColor=none;fontColor=#FF0000;" parent="U2COYKZ9y0e4vOzo1eaQ-1" vertex="1">
                    <mxGeometry x="-435" y="190" width="20" height="20" as="geometry"/>
                </mxCell>
                <mxCell id="ulAnVibXYlt-oufWvovE-1" value="0..*" style="text;html=1;align=center;verticalAlign=middle;resizable=0;points=[];autosize=1;strokeColor=none;fillColor=none;fontColor=#FF0000;" parent="U2COYKZ9y0e4vOzo1eaQ-1" vertex="1">
                    <mxGeometry x="-440" y="260" width="30" height="20" as="geometry"/>
                </mxCell>
                <mxCell id="o8oBgXos8wijMpKWkSOp-2" value="&lt;font color=&quot;#ff0000&quot;&gt;Quản lí Đĩa&lt;/font&gt;" style="rounded=0;whiteSpace=wrap;html=1;labelBackgroundColor=#FFFF33;strokeColor=#36393d;fillColor=#ffff88;" parent="U2COYKZ9y0e4vOzo1eaQ-1" vertex="1">
                    <mxGeometry x="-495" y="410" width="120" height="60" as="geometry"/>
                </mxCell>
                <mxCell id="bv4nujuzxs6KhLqfxOJk-1" value="" style="endArrow=none;html=1;fontColor=#FF0000;strokeColor=#3333FF;exitX=0;exitY=1;exitDx=0;exitDy=0;entryX=1;entryY=0;entryDx=0;entryDy=0;" parent="U2COYKZ9y0e4vOzo1eaQ-1" source="kw6-8Ziui9tUm82AIqNF-6" target="o8oBgXos8wijMpKWkSOp-2" edge="1">
                    <mxGeometry width="50" height="50" relative="1" as="geometry">
                        <mxPoint x="-165" y="310" as="sourcePoint"/>
                        <mxPoint x="-415" y="420" as="targetPoint"/>
                    </mxGeometry>
                </mxCell>
                <mxCell id="bbgkbFkYtuxhZXDyjhQg-0" value="1" style="text;html=1;align=center;verticalAlign=middle;resizable=0;points=[];autosize=1;strokeColor=none;fillColor=none;fontColor=#FF0000;" parent="U2COYKZ9y0e4vOzo1eaQ-1" vertex="1">
                    <mxGeometry x="-375" y="400" width="20" height="20" as="geometry"/>
                </mxCell>
                <mxCell id="bbgkbFkYtuxhZXDyjhQg-1" value="0..*" style="text;html=1;align=center;verticalAlign=middle;resizable=0;points=[];autosize=1;strokeColor=none;fillColor=none;fontColor=#FF0000;" parent="U2COYKZ9y0e4vOzo1eaQ-1" vertex="1">
                    <mxGeometry x="-285" y="340" width="30" height="20" as="geometry"/>
                </mxCell>
                <mxCell id="Attaz6BAwAd4xAD4VXUb-0" value="" style="edgeStyle=none;html=1;fontColor=#FF0000;strokeColor=#3333FF;exitX=1;exitY=0.5;exitDx=0;exitDy=0;entryX=0;entryY=0.5;entryDx=0;entryDy=0;" parent="U2COYKZ9y0e4vOzo1eaQ-1" source="Attaz6BAwAd4xAD4VXUb-1" edge="1">
                    <mxGeometry relative="1" as="geometry">
                        <mxPoint x="-495" y="160" as="targetPoint"/>
                    </mxGeometry>
                </mxCell>
                <mxCell id="Attaz6BAwAd4xAD4VXUb-1" value="&lt;font color=&quot;#ff0000&quot;&gt;Mẫu đăng kí&lt;/font&gt;" style="rounded=0;whiteSpace=wrap;html=1;labelBackgroundColor=#FFFF33;strokeColor=#36393d;fillColor=#ffff88;" parent="U2COYKZ9y0e4vOzo1eaQ-1" vertex="1">
                    <mxGeometry x="-700" y="130" width="120" height="60" as="geometry"/>
                </mxCell>
                <mxCell id="Attaz6BAwAd4xAD4VXUb-2" value="0..*" style="text;html=1;align=center;verticalAlign=middle;resizable=0;points=[];autosize=1;strokeColor=none;fillColor=none;fontColor=#FF0000;" parent="U2COYKZ9y0e4vOzo1eaQ-1" vertex="1">
                    <mxGeometry x="-580" y="160" width="30" height="20" as="geometry"/>
                </mxCell>
                <mxCell id="Attaz6BAwAd4xAD4VXUb-3" value="1" style="text;html=1;align=center;verticalAlign=middle;resizable=0;points=[];autosize=1;strokeColor=none;fillColor=none;fontColor=#FF0000;" parent="U2COYKZ9y0e4vOzo1eaQ-1" vertex="1">
                    <mxGeometry x="-515" y="160" width="20" height="20" as="geometry"/>
                </mxCell>
                <mxCell id="2d2OtCtgSHPU46GhbuUa-0" value="&lt;font color=&quot;#ff3333&quot;&gt;Sơ&amp;nbsp;đồ Domain của Cửa Hàng Bán Đĩa&lt;/font&gt;" style="text;html=1;strokeColor=#FF3333;fillColor=#ffff88;align=center;verticalAlign=middle;whiteSpace=wrap;rounded=0;strokeWidth=3;fontStyle=1" vertex="1" parent="U2COYKZ9y0e4vOzo1eaQ-1">
                    <mxGeometry x="-580" y="40" width="310" height="30" as="geometry"/>
                </mxCell>
            </root>
        </mxGraphModel>
    </diagram>
</mxfile>